<svg width="45" height="45" viewBox="0 0 45 45" fill="none" xmlns="http://www.w3.org/2000/svg">
<path d="M22.4645 45C10.0948 45 0 34.9052 0 22.4645C0 10.0948 10.0948 0 22.4645 0C34.8341 0 44.9289 10.0948 44.9289 22.4645C45 34.9052 34.9052 45 22.4645 45ZM22.4645 1.4218C10.8768 1.4218 1.4218 10.8768 1.4218 22.4645C1.4218 34.0521 10.8768 43.5071 22.4645 43.5071C34.1232 43.5782 43.5782 34.1232 43.5782 22.4645C43.5782 10.8057 34.1232 1.4218 22.4645 1.4218Z" fill="#D3AD6F"/>
<path d="M32.2748 27.2274C32.5592 26.8009 32.7014 26.3744 32.6303 25.9478C32.4881 24.8815 31.7061 24.1706 30.5687 24.1706C29.2891 24.1706 28.0805 24.1706 26.8009 24.1706H25.2369C25.308 24.0284 25.308 23.8862 25.3791 23.8151C25.5924 23.3175 25.7346 22.8909 25.8767 22.4644C26.3744 20.9715 26.4455 19.8341 26.1611 18.7677C25.8767 17.6303 25.308 16.9194 24.3838 16.4928C23.8151 16.2796 23.1753 16.2796 22.6066 16.5639C22.109 16.8483 21.6824 17.2748 21.5402 17.7725C21.3981 18.199 21.4692 18.6255 21.5402 19.1943C21.7535 19.9763 21.6113 20.6872 21.1137 21.3981C20.2606 22.6066 19.1232 23.6018 17.5592 24.3127C17.3459 24.4549 17.0616 24.4549 16.7772 24.526C16.7061 24.526 16.635 24.526 16.5639 24.5971C16.5639 24.526 16.4929 24.4549 16.4929 24.4549C16.1374 23.744 15.5687 23.3175 14.7867 23.3175C13.9336 23.3175 13.0805 23.3175 12.3696 23.3175C11.5165 23.3175 10.8056 23.8862 10.5213 24.6682C10.5213 24.7393 10.4502 24.8104 10.4502 24.8104V24.8815V33.7677V36.2559H13.5071H15.071L15.2843 36.1848C15.4265 36.1137 15.4976 36.1137 15.6398 36.0426C16.1374 35.8293 16.4218 35.4739 16.635 34.9763C16.635 34.9052 16.635 34.9052 16.635 34.9052C16.7772 34.9763 16.8483 34.9763 16.9905 35.0473C17.3459 35.1184 17.6303 35.2606 17.9147 35.4028L17.9857 35.4739C18.5545 35.7582 19.1232 36.0426 19.6919 36.1848L20.4028 36.327H29.5734H29.6445H29.7156C30.2843 36.1848 30.7819 35.7582 30.9952 35.1895C31.2085 34.6208 31.2085 34.0521 30.9241 33.4834C31.4218 33.199 31.7772 32.8436 31.9905 32.3459C32.1327 31.8483 32.1327 31.3507 31.8483 30.7819C32.4881 30.4265 32.9147 29.9289 32.9857 29.218C33.1279 28.2938 32.8436 27.7251 32.2748 27.2274ZM30.853 29.5734H29.7867C29.1469 29.5734 28.5782 29.5734 27.9383 29.5734C27.5118 29.5734 27.2985 29.8578 27.2985 30.2132C27.2985 30.5687 27.5118 30.853 27.9383 30.853C28.0094 30.853 28.0805 30.853 28.1516 30.853H28.7914C29.2891 30.853 29.7156 30.853 30.2132 30.853C30.4265 30.853 30.6398 30.9241 30.7819 31.1374C30.9241 31.2796 30.9952 31.4928 30.9241 31.7061C30.853 32.0616 30.5687 32.2748 30.1421 32.2748C29.7867 32.2748 29.4312 32.2748 29.0758 32.2748C28.7203 32.2748 28.3649 32.2748 27.9383 32.2748C27.7251 32.2748 27.5118 32.3459 27.3696 32.5592C27.2274 32.7014 27.2274 32.9146 27.2985 33.0568C27.3696 33.3412 27.5829 33.5545 27.9383 33.5545C28.1516 33.5545 28.3649 33.5545 28.5071 33.5545C28.7203 33.5545 28.9336 33.5545 29.1469 33.5545C29.6445 33.5545 29.9289 33.8388 29.9289 34.2654C29.9289 34.6919 29.5734 34.9763 29.1469 34.9763H27.7962C25.5213 34.9763 23.1753 34.9763 20.9004 34.9763C20.1184 34.9763 19.4075 34.763 18.7677 34.4075C18.2701 34.1232 17.5592 33.7677 16.7772 33.6966V25.8767C16.9194 25.8056 17.0616 25.8056 17.2038 25.7345C17.5592 25.6635 17.9857 25.5213 18.3412 25.3791C19.9052 24.5971 21.1848 23.6018 22.109 22.3222C22.891 21.2559 23.1753 20.0473 22.8199 18.8388C22.8199 18.6966 22.7488 18.5545 22.7488 18.4834C22.7488 18.199 22.8199 17.9857 23.0331 17.8436C23.2464 17.7014 23.5308 17.6303 23.744 17.7014C24.0995 17.8436 24.3838 18.0568 24.6682 18.5545C25.0237 19.1943 25.0947 19.9052 24.9526 20.8293C24.8104 21.9668 24.3128 23.1042 23.6019 24.4549C23.3886 24.8104 23.4597 25.0947 23.5308 25.2369C23.6019 25.3791 23.8151 25.5213 24.2417 25.5213H25.8056C27.2985 25.5213 28.8625 25.5213 30.3554 25.5213C30.5687 25.5213 30.7819 25.5924 30.9241 25.6635C31.2085 25.8056 31.2796 26.09 31.2085 26.4454C31.1374 26.7298 30.853 26.9431 30.5687 26.9431C30.1421 26.9431 29.7867 26.9431 29.3601 26.9431H28.5782C28.3649 26.9431 28.1516 26.9431 27.9383 26.9431C27.5118 26.9431 27.2274 27.2274 27.2274 27.5829C27.2274 27.9383 27.5118 28.2227 27.9383 28.2227H29.0758C29.6445 28.2227 30.2843 28.2227 30.853 28.2227C31.0663 28.2227 31.3507 28.2938 31.4929 28.436C31.635 28.5782 31.7061 28.7203 31.7061 28.9336C31.7061 29.2891 31.4218 29.5734 31.0663 29.6445C31.0663 29.5734 30.9952 29.5734 30.853 29.5734ZM15.5687 28.5071V34.1232C15.5687 34.6919 15.2843 34.9763 14.7156 34.9763C14.0047 34.9763 13.3649 34.9763 12.654 34.9763C12.0853 34.9763 11.8009 34.6919 11.8009 34.1232C11.8009 31.2085 11.8009 28.2227 11.8009 25.308C11.8009 24.8104 12.0853 24.4549 12.654 24.4549C13.0094 24.4549 13.3649 24.4549 13.7203 24.4549C14.0758 24.4549 14.4312 24.4549 14.7867 24.4549C15.3554 24.4549 15.6398 24.7393 15.6398 25.308L15.5687 28.5071Z" fill="#D3AD6F"/>
<path d="M24.3127 14.5025C24.3838 14.5025 24.3838 14.5025 24.4548 14.5025H24.5259C26.0188 14.5735 27.0141 15.3555 27.5117 16.8484C27.6539 17.2039 27.6539 17.6304 27.725 18.057L27.7961 18.4124C27.8672 18.9811 28.2937 19.0522 28.4359 19.0522C28.6492 19.0522 29.0046 18.9811 29.0757 18.4124C29.0757 18.2702 29.0757 18.1991 29.1468 18.057C29.2179 17.6304 29.289 17.2039 29.3601 16.8484C29.7155 15.6399 30.4975 14.929 31.5638 14.6446C31.7771 14.5735 31.9904 14.5735 32.2037 14.5735C32.3458 14.5735 32.4169 14.5735 32.5591 14.5735C32.7724 14.5735 32.9856 14.4314 33.0567 14.2181C33.1278 14.0048 33.1278 13.8626 33.0567 13.6494C32.9146 13.365 32.5591 13.2939 32.4169 13.2939C30.8529 13.2228 29.8577 12.4408 29.3601 10.948C29.2179 10.5925 29.2179 10.166 29.1468 9.73942L29.0757 9.38397C29.0046 9.09961 28.8624 8.88634 28.6492 8.81525C28.4359 8.74416 28.2937 8.74416 28.1515 8.88634C28.0093 8.95743 27.9383 9.1707 27.8672 9.45506C27.7961 9.66833 27.7961 9.8816 27.725 10.0949C27.6539 10.4503 27.6539 10.7347 27.5117 11.019C27.0852 12.2987 26.2321 13.0807 24.9525 13.2939C24.8814 13.2939 24.7392 13.2939 24.597 13.2939C24.5259 13.2939 24.3838 13.2939 24.3127 13.2939C23.9572 13.365 23.6729 13.5783 23.7439 13.9337C23.6729 14.2892 23.8861 14.5025 24.3127 14.5025ZM26.7297 13.9337C26.8008 13.8626 26.8719 13.8626 26.8719 13.7916C27.1563 13.5783 27.4406 13.365 27.6539 13.0807C27.8672 12.7963 28.0804 12.5119 28.2937 12.2276C28.2937 12.1565 28.3648 12.1565 28.3648 12.0854C28.7202 12.7963 29.289 13.4361 29.9999 13.9337C29.289 14.4314 28.7202 15.0001 28.3648 15.7821C27.9383 14.929 27.4406 14.3603 26.7297 13.9337Z" fill="#D3AD6F"/>
<path d="M13.5066 18.6256C14.3597 18.6256 14.9995 19.1232 15.2839 19.9052C15.426 20.2606 15.4971 20.6161 15.4971 20.9715V21.1848C15.5682 21.6113 15.7815 21.8246 16.1369 21.8246C16.4924 21.8246 16.7057 21.5402 16.7767 21.1848V21.1137C16.7767 20.9004 16.8478 20.6872 16.8478 20.4739C17.0611 19.4786 17.5587 18.981 18.2696 18.7677C18.4118 18.7677 18.554 18.6966 18.6962 18.6966H18.8384C19.1938 18.6256 19.4071 18.4123 19.4071 18.0568C19.4071 17.7014 19.1227 17.417 18.6962 17.417C17.9142 17.417 17.3455 17.0616 17.0611 16.3507C16.8478 15.9241 16.7767 15.4976 16.7057 14.9289C16.7057 14.5734 16.4213 14.2891 16.0658 14.2891C15.7104 14.2891 15.4971 14.5734 15.426 14.9289C15.426 15.2132 15.3549 15.4265 15.3549 15.7109C15.2128 16.2796 14.9995 16.7061 14.644 16.9905C14.2886 17.2748 13.9331 17.417 13.4355 17.4881C13.009 17.4881 12.7246 17.7725 12.7246 18.1279C12.7957 18.3412 13.0801 18.5545 13.5066 18.6256ZM15.426 17.9857L16.1369 17.1327L16.8478 17.9857L16.1369 18.8388L15.426 17.9857Z" fill="#D3AD6F"/>
<path d="M19.407 12.1565C19.3359 12.1565 19.2649 12.2276 19.1938 12.2987L19.1227 12.3698C18.8383 12.5831 18.554 12.8674 18.3407 13.1518C18.1274 13.3651 18.1985 13.7205 18.4118 13.9338C18.554 14.076 18.6961 14.1471 18.8383 14.1471C18.9805 14.1471 19.1227 14.076 19.1938 14.0049C19.4781 13.7916 19.7625 13.5072 19.9758 13.2229C20.1179 13.0807 20.1179 12.7963 20.0468 12.5831C19.9758 12.4409 19.8336 12.3698 19.7625 12.2987L19.6914 12.2276L19.6203 12.0854L19.6914 12.0144C19.7625 12.0144 19.7625 11.9433 19.8336 11.9433C19.9047 11.8722 20.0468 11.8011 20.1179 11.6589C20.2601 11.4456 20.2601 11.1613 20.0468 10.948C19.8336 10.6636 19.5492 10.4504 19.3359 10.2371C19.0516 10.0238 18.6961 10.0238 18.4829 10.2371C18.2696 10.4504 18.2696 10.8769 18.4829 11.0902C18.6961 11.3035 18.9094 11.5167 19.1938 11.8011C19.2649 11.8722 19.3359 11.9433 19.4781 11.9433C19.5492 11.9433 19.5492 12.0144 19.6203 12.0144L19.6914 12.0854C19.5492 12.1565 19.4781 12.1565 19.407 12.1565Z" fill="#D3AD6F"/>
<path d="M20.6158 11.9433L20.6869 12.0144L20.7579 12.0854H20.6869C20.6158 12.0854 20.6158 12.1565 20.5447 12.1565C20.4025 12.2276 20.2603 12.2987 20.2603 12.4409C20.1892 12.6542 20.2603 12.9385 20.4025 13.0807C20.5447 13.294 20.7579 13.4362 20.9001 13.6494L21.0423 13.7916C21.1845 13.9338 21.3267 14.0049 21.5399 14.0049C21.6821 14.0049 21.8243 13.9338 21.9665 13.7916C22.2508 13.5072 22.1797 13.1518 21.9665 12.8674C21.7532 12.6542 21.5399 12.4409 21.3267 12.2276C21.2556 12.1565 21.1845 12.0854 21.0423 12.0854C20.9712 12.0854 20.9712 12.0144 20.9001 12.0144V12.0854C20.9712 12.0854 20.9712 12.0854 21.0423 12.0854C21.1134 12.0854 21.1845 12.0144 21.3267 11.9433C21.611 11.6589 21.8954 11.4456 22.1797 11.0902C22.393 10.8769 22.3219 10.5215 22.1087 10.2371C21.8954 10.0238 21.5399 10.0238 21.3267 10.2371C20.9712 10.5215 20.7579 10.8058 20.5447 11.0191C20.4025 11.1613 20.4025 11.4456 20.4736 11.6589C20.4025 11.8011 20.5447 11.8722 20.6158 11.9433Z" fill="#D3AD6F"/>
<path d="M32.5591 19.905C32.5591 19.5496 32.5591 19.1941 32.5591 18.7676C32.5591 18.4121 32.2037 18.1989 31.9193 18.27C31.6349 18.27 31.3506 18.5543 31.3506 18.8387C31.3506 18.9809 31.3506 19.052 31.3506 19.1941V19.3363V19.4785C31.3506 19.6207 31.3506 19.6918 31.3506 19.8339C31.3506 20.1894 31.6349 20.4027 31.9193 20.4027C31.9193 20.4027 31.9193 20.4027 31.9904 20.4027C32.3458 20.4027 32.5591 20.1894 32.5591 19.905Z" fill="#D3AD6F"/>
<path d="M31.7059 20.6872C31.7059 20.3317 31.4927 20.0474 31.2083 20.0474C30.8529 20.0474 30.4263 20.0474 30.0709 20.0474C29.9287 20.0474 29.7865 20.1185 29.7154 20.2606C29.6443 20.4028 29.5732 20.545 29.5732 20.7583C29.6443 21.1137 29.8576 21.2559 30.142 21.327C30.2131 21.327 30.2841 21.327 30.3552 21.327C30.4263 21.327 30.4974 21.327 30.4974 21.327H30.6396H30.7818C30.924 21.327 30.995 21.327 31.1372 21.327C31.4216 21.2559 31.7059 21.0426 31.7059 20.6872Z" fill="#D3AD6F"/>
<path d="M33.9103 20.1187C33.4837 20.0477 33.1283 20.0477 32.7017 20.1187C32.4174 20.1187 32.2041 20.4031 32.2041 20.7586C32.2041 21.114 32.4174 21.3273 32.7017 21.3273C32.7728 21.3273 32.8439 21.3273 32.915 21.3273C32.9861 21.3273 32.9861 21.3273 33.0572 21.3273H33.1994H33.3415C33.4837 21.3273 33.6259 21.3273 33.7681 21.3273C34.0524 21.3273 34.2657 21.114 34.3368 20.7586C34.4079 20.4031 34.2657 20.1187 33.9103 20.1187Z" fill="#D3AD6F"/>
<path d="M31.3506 22.5355C31.3506 22.8909 31.6349 23.1042 31.9193 23.1042C31.9193 23.1042 31.9193 23.1042 31.9904 23.1042C32.3458 23.1042 32.5591 22.8909 32.6302 22.6066C32.6302 22.2511 32.6302 21.8957 32.6302 21.4691C32.6302 21.1848 32.3458 20.9004 31.9904 20.9715C31.706 20.9715 31.4217 21.2559 31.4217 21.5402C31.4217 21.6113 31.4217 21.7535 31.4217 21.8246V22.4644C31.3506 22.4644 31.3506 22.5355 31.3506 22.5355Z" fill="#D3AD6F"/>
</svg>
