<svg width="8" height="12" viewBox="0 0 8 12" fill="none" xmlns="http://www.w3.org/2000/svg">
<path d="M4.5291 0C5.07937 0.24 5.67196 0.384 6.13757 0.672C7.7037 1.728 8.33862 3.648 7.74603 5.616C7.49206 6.48 7.06878 7.344 6.60318 8.16C5.8836 9.36 5.07937 10.56 4.31746 11.712C4.06349 12.096 3.85185 12.096 3.64021 11.712C2.83598 10.464 1.98942 9.264 1.26984 8.016C0.719577 7.056 0.42328 5.904 0 4.848C0 4.464 0 4.032 0 3.648C0.042328 3.504 0.0846561 3.36 0.0846561 3.264C0.42328 1.92 1.18519 0.912 2.45503 0.336C2.79365 0.192 3.13228 0.096 3.4709 0C3.80952 0 4.19048 0 4.5291 0ZM3.97884 11.04C5.07937 9.36 6.26455 7.824 6.98413 5.952C7.11111 5.664 7.19577 5.328 7.2381 4.992C7.78836 2.352 5.50265 0.096 3.04762 0.864C1.22751 1.392 0.253968 3.36 0.846561 5.424C1.43915 7.536 2.79365 9.168 3.97884 11.04Z" fill="white"/>
<path d="M5.96809 4.55986C5.96809 5.80786 5.0792 6.81586 3.97868 6.81586C2.87815 6.81586 1.98926 5.75986 1.98926 4.51186C1.98926 3.26386 2.87815 2.30386 3.97868 2.25586C5.0792 2.25586 6.01042 3.31186 5.96809 4.55986ZM4.021 6.04786C4.74058 6.04786 5.33317 5.32786 5.33317 4.51186C5.33317 3.69586 4.69825 2.97586 3.97868 3.02386C3.2591 3.07186 2.66651 3.74386 2.66651 4.55986C2.66651 5.37586 3.30143 6.09586 4.021 6.04786Z" fill="white"/>
</svg>
