<svg width="35" height="35" viewBox="0 0 35 35" fill="none" xmlns="http://www.w3.org/2000/svg">
<g clip-path="url(#clip0_156_129)">
<path d="M15.5859 0C16.8711 0 18.1289 0 19.4141 0C19.6328 0.0820312 19.8242 0.21875 20.043 0.246094C27.5352 1.53125 32.8672 6.53516 34.5898 13.918C34.7266 14.4922 34.8633 15.0391 35.0273 15.5859C35.0273 16.8711 35.0273 18.1289 35.0273 19.4141C34.9453 19.6602 34.8086 19.9062 34.7539 20.1523C33.5234 27.0703 29.5586 31.6914 22.9688 34.0703C21.8203 34.4805 20.6172 34.6992 19.4414 35C18.1562 35 16.8984 35 15.6133 35C15.3672 34.918 15.1211 34.7812 14.8477 34.7266C8.53125 33.6328 4.07422 30.1328 1.47656 24.3086C0.765625 22.7773 0.464844 21.0547 0 19.4141C0 18.2383 0 17.0352 0 15.8594C0.0820312 15.5039 0.21875 15.1758 0.273438 14.8203C1.53125 8.12109 5.30469 3.5 11.7031 1.09375C12.9336 0.601562 14.2734 0.355469 15.5859 0ZM17.5 1.77734C8.83203 1.80469 1.77734 8.88672 1.80469 17.5547C1.83203 26.2227 8.96875 33.332 17.5547 33.2773C26.2227 33.2227 33.3047 26.0859 33.2773 17.5C33.2773 8.85938 26.1406 1.77734 17.5 1.77734Z" fill="white"/>
<path d="M11.8129 17.4179C11.8129 15.5859 11.7856 13.7812 11.8129 11.9492C11.8403 9.87105 13.3168 8.96871 15.1489 10.0078C18.3754 11.8125 21.5473 13.6445 24.7192 15.5312C26.77 16.7617 26.7426 18.375 24.6372 19.5781C21.5747 21.3554 18.5122 23.1328 15.4223 24.8828C13.2895 26.0859 11.8403 25.2929 11.8129 22.8593C11.7856 21.0546 11.8129 19.25 11.8129 17.4179ZM24.8559 17.5C20.9457 15.2304 17.4184 13.207 13.6723 11.0468C13.6723 15.4492 13.6723 19.5507 13.6723 23.9531C17.4184 21.7929 20.9731 19.7421 24.8559 17.5Z" fill="white"/>
</g>
<defs>
<clipPath id="clip0_156_129">
<rect width="35" height="35" fill="white"/>
</clipPath>
</defs>
</svg>
