<svg width="15" height="15" viewBox="0 0 15 15" fill="none" xmlns="http://www.w3.org/2000/svg">
<path d="M14.5 4H11V0.5C11 0.2 10.8 0 10.5 0H0.5C0.2 0 0 0.2 0 0.5V4V10.5C0 10.8 0.2 11 0.5 11H4V14.5C4 14.8 4.2 15 4.5 15H14.5C14.8 15 15 14.8 15 14.5V8V4.5C15 4.2 14.8 4 14.5 4ZM4 9H2.5C2.2 9 2 8.8 2 8.5V4.5C2 4.2 2.2 4 2.5 4H4.5H8.5C8.8 4 9 4.2 9 4.5V8V8.5C9 8.8 8.8 9 8.5 9H6H4ZM13 12.5C13 12.8 12.8 13 12.5 13H6.5C6.2 13 6 12.8 6 12.5V11H10.5C10.8 11 11 10.8 11 10.5V8H12.5C12.8 8 13 8.2 13 8.5V12.5Z" fill="white"/>
</svg>
