<svg width="20" height="20" viewBox="0 0 20 20" fill="none" xmlns="http://www.w3.org/2000/svg">
<path d="M10 20C8.02219 20 6.08879 19.4135 4.4443 18.3147C2.79981 17.2159 1.51809 15.6541 0.761209 13.8268C0.0043328 11.9996 -0.1937 9.98891 0.192152 8.0491C0.578004 6.10929 1.53041 4.32746 2.92894 2.92894C4.32746 1.53041 6.10929 0.578004 8.0491 0.192152C9.98891 -0.1937 11.9996 0.0043328 13.8268 0.761209C15.6541 1.51809 17.2159 2.79981 18.3147 4.4443C19.4135 6.08879 20 8.02219 20 10C19.9971 12.6513 18.9426 15.1931 17.0679 17.0679C15.1931 18.9426 12.6513 19.9971 10 20ZM10 0.921236C8.20439 0.921236 6.4491 1.4537 4.95611 2.45128C3.46311 3.44887 2.29947 4.86678 1.61232 6.52571C0.925166 8.18464 0.745376 10.0101 1.09568 11.7712C1.44599 13.5323 2.31066 15.15 3.58034 16.4197C4.85003 17.6893 6.46771 18.554 8.22882 18.9043C9.98993 19.2546 11.8154 19.0748 13.4743 18.3877C15.1332 17.7005 16.5511 16.5369 17.5487 15.0439C18.5463 13.5509 19.0788 11.7956 19.0788 10C19.0766 7.59283 18.1194 5.28487 16.4173 3.58274C14.7151 1.88061 12.4072 0.923401 10 0.921236Z" fill="white" fill-opacity="0.8"/>
<path d="M9.99962 19.9999C8.66186 20.0024 7.33743 19.7342 6.10602 19.2114C4.87462 18.6887 3.76168 17.9223 2.83418 16.9582L2.6543 16.7729L2.71698 16.5249C3.36566 13.9002 4.74206 11.8369 6.58725 10.7195L6.94429 10.5205L7.19777 10.8339C7.5382 11.2521 7.96752 11.5892 8.45453 11.8208C8.94154 12.0523 9.47401 12.1724 10.0132 12.1724C10.5525 12.1724 11.085 12.0523 11.572 11.8208C12.059 11.5892 12.4883 11.2521 12.8287 10.8339L13.0822 10.5205L13.4256 10.7304C15.2708 11.8478 16.6472 13.9111 17.2959 16.5358L17.3586 16.7838L17.1651 16.9582C16.2375 17.9221 15.1245 18.6885 13.8931 19.2112C12.6617 19.7339 11.3374 20.0022 9.99962 19.9999ZM3.67365 16.5058C5.36515 18.1553 7.63426 19.0785 9.99689 19.0785C12.3595 19.0785 14.6286 18.1553 16.3201 16.5058C15.7478 14.3962 14.6848 12.72 13.2485 11.7279C12.8248 12.1609 12.319 12.5049 11.7607 12.7398C11.2023 12.9747 10.6026 13.0956 9.99689 13.0956C9.39115 13.0956 8.7915 12.9747 8.23314 12.7398C7.67478 12.5049 7.16895 12.1609 6.74533 11.7279C5.32532 12.72 4.24874 14.3962 3.67365 16.5058Z" fill="white" fill-opacity="0.8"/>
<path d="M13.5295 11.4144L12.8154 10.8338C13.2488 10.3015 13.5223 9.65711 13.6043 8.97555C13.6863 8.29399 13.5734 7.60315 13.2787 6.98317C12.9839 6.36319 12.5194 5.83948 11.9391 5.4728C11.3588 5.10611 10.6864 4.91148 9.99989 4.91148C9.31342 4.91148 8.64101 5.10611 8.06068 5.4728C7.48034 5.83948 7.01586 6.36319 6.72113 6.98317C6.42639 7.60315 6.31347 8.29399 6.39547 8.97555C6.47747 9.65711 6.75103 10.3015 7.18441 10.8338L6.47032 11.4144C5.92686 10.7469 5.58378 9.93907 5.48088 9.08453C5.37799 8.22999 5.51951 7.36378 5.88901 6.58641C6.25851 5.80905 6.84085 5.15238 7.56848 4.6926C8.2961 4.23282 9.13918 3.98877 9.99989 3.98877C10.8606 3.98877 11.7037 4.23282 12.4313 4.6926C13.1589 5.15238 13.7413 5.80905 14.1108 6.58641C14.4803 7.36378 14.6218 8.22999 14.5189 9.08453C14.416 9.93907 14.0729 10.7469 13.5295 11.4144Z" fill="white" fill-opacity="0.8"/>
</svg>
