<svg width="165" height="40" viewBox="0 0 165 40" fill="none" xmlns="http://www.w3.org/2000/svg">
<path d="M29.4644 11.5803L14.8491 0L0 11.5803L0.116922 32.1502H29.5813L29.4644 11.5803ZM26.9311 29.4416H11.3025L11.2635 19.6277L19.1753 13.4646L26.8921 19.5492L26.9311 29.4416ZM2.65024 12.8758L14.8491 3.37597L26.8532 12.8758V16.3695L19.2142 10.3242L8.80815 18.4108L8.8861 29.4808H2.72819L2.65024 12.8758Z" fill="white"/>
<path d="M43.1934 8.08643H54.4569C59.7184 8.08643 62.5635 11.6587 62.5635 15.8983C62.5635 20.1378 59.6794 23.6708 54.4569 23.6708H48.299V32.3855H43.1934V8.08643ZM53.7943 12.5223H48.3379V19.235H53.7943C55.821 19.235 57.341 17.9395 57.341 15.8983C57.341 13.8962 55.821 12.5223 53.7943 12.5223Z" fill="white"/>
<path d="M64.707 14.7988H69.306V17.1934C70.5531 15.6232 72.6967 14.4062 74.8793 14.4062V18.9206C74.5675 18.8421 74.1388 18.8029 73.6321 18.8029C72.1121 18.8029 70.0855 19.6272 69.3449 20.7656V32.3852H64.746V14.7988H64.707Z" fill="white"/>
<path d="M75.8145 23.5531C75.8145 18.5677 79.2831 14.3281 85.0513 14.3281C90.8195 14.3281 94.2882 18.5677 94.2882 23.5531C94.2882 28.5778 90.8195 32.8174 85.0513 32.8174C79.2831 32.8174 75.8145 28.5778 75.8145 23.5531ZM89.4944 23.5531C89.4944 20.8053 87.8575 18.4499 85.0123 18.4499C82.1672 18.4499 80.5693 20.8053 80.5693 23.5531C80.5693 26.3403 82.1672 28.6956 85.0123 28.6956C87.8964 28.6956 89.4944 26.3403 89.4944 23.5531Z" fill="white"/>
<path d="M97.0557 39.0981V14.799H101.655V17.0366C102.98 15.3093 104.889 14.3672 107.033 14.3672C111.515 14.3672 114.789 17.7039 114.789 23.5922C114.789 29.4805 111.554 32.8565 107.033 32.8565C104.967 32.8565 103.058 31.9929 101.655 30.1479V39.0981H97.0557ZM105.591 18.4498C104.11 18.4498 102.395 19.3134 101.655 20.4518V26.6934C102.395 27.7925 104.11 28.6954 105.591 28.6954C108.241 28.6954 109.995 26.6149 109.995 23.553C109.995 20.5303 108.202 18.4498 105.591 18.4498Z" fill="white"/>
<path d="M116.582 23.5531C116.582 18.5677 120.051 14.3281 125.819 14.3281C131.587 14.3281 135.056 18.5677 135.056 23.5531C135.056 28.5778 131.587 32.8174 125.819 32.8174C120.051 32.8174 116.582 28.5778 116.582 23.5531ZM130.301 23.5531C130.301 20.8053 128.664 18.4499 125.819 18.4499C122.974 18.4499 121.376 20.8053 121.376 23.5531C121.376 26.3403 122.974 28.6956 125.819 28.6956C128.664 28.6956 130.301 26.3403 130.301 23.5531Z" fill="white"/>
<path d="M137.822 8.08643H142.421V32.3855H137.822V8.08643Z" fill="white"/>
<path d="M148.034 35.4079C149.242 35.4079 150.022 35.0939 150.45 34.1517L151.113 32.66L144.02 14.7988H148.93L153.49 27.0465L158.05 14.7988H163L154.776 35.2509C153.49 38.5484 151.152 39.4512 148.151 39.5297C147.605 39.5297 146.436 39.412 145.89 39.2942L146.592 35.1331C146.982 35.2902 147.566 35.4079 148.034 35.4079Z" fill="white"/>
</svg>
